<svg width="473" height="678" viewBox="0 0 473 678" fill="none" xmlns="http://www.w3.org/2000/svg">
<path fill-rule="evenodd" clip-rule="evenodd" d="M308.151 1.00046C374.045 0.768659 400.867 89.0021 446.552 136.489C480.699 171.982 511.39 206.695 542.654 244.751C585.991 297.503 660.477 335.185 665.707 403.254C670.903 470.893 615.126 528.191 568.194 577.174C522.899 624.449 468.942 673.087 403.578 676.84C340.534 680.459 297.655 611.545 236.395 596.223C170.973 579.861 82.3784 636.709 38.4709 585.524C-5.52061 534.242 63.4646 455.177 57.6564 387.861C52.3567 326.438 -18.8871 270.267 6.41909 214.049C31.6911 157.908 120.08 172.972 170.374 137.46C224.268 99.4061 242.176 1.23254 308.151 1.00046Z" stroke="#818080" stroke-width="2"/>
</svg>
