<svg width="424" height="802" viewBox="0 0 424 802" fill="none" xmlns="http://www.w3.org/2000/svg">
<path d="M-215.018 705.332C-87.0055 713.303 29.5746 832.695 151.596 793.175C275.416 753.073 360.999 628.173 403.279 505.08C443.996 386.537 416.268 256.58 376.762 137.628C341.887 32.6179 268.426 -49.9311 192.286 -130.219C119.296 -207.187 42.3015 -278.969 -56.0315 -318.747C-161.583 -361.445 -280.398 -403.362 -387.517 -364.763C-493.494 -326.575 -527.875 -196.711 -609.663 -119.249C-703.814 -30.0771 -854.76 3.50689 -903.31 123.752C-954.108 249.564 -934.405 402.583 -868.17 520.997C-803.592 636.448 -680.732 713.347 -553.42 749.277C-441.686 780.811 -330.893 698.117 -215.018 705.332Z" fill="#818081" fill-opacity="0.26"/>
</svg>
