<svg width="571" height="455" viewBox="0 0 571 455" fill="none" xmlns="http://www.w3.org/2000/svg">
<path d="M571 909.997C654.863 910.025 714.058 832.582 786.457 790.257C862.755 745.653 965.714 732.181 1007.96 654.551C1050.51 576.352 1021.76 479.89 1002.65 392.938C984.697 311.2 958.756 229.637 901.251 168.836C845.039 109.402 764.422 86.275 687.168 59.367C605.995 31.094 521.335 -19.045 439.779 8.104C358.49 35.164 338.552 141.498 273.38 197.111C191.318 267.136 46.916 272.866 10.504 374.413C-24.901 473.15 37.515 587.332 104.519 668.035C165.201 741.125 271.309 746.371 355.637 790.112C430.078 828.724 487.141 909.969 571 909.997Z" fill="#818081" fill-opacity="0.26"/>
</svg>
