<svg width="555" height="719" viewBox="0 0 555 719" fill="none" xmlns="http://www.w3.org/2000/svg">
<path fill-rule="evenodd" clip-rule="evenodd" d="M198.228 1.00037C265.931 1.15251 317.853 56.1867 374.708 92.9445C431.395 129.594 499.15 156.027 530.491 215.813C562.41 276.704 555.019 349.396 544.779 417.379C534.593 484.999 515.266 551.816 471.913 604.702C427.871 658.428 368.877 703.822 300.394 715.498C234.606 726.714 172.83 690.175 110.503 666.317C53.1462 644.362 -6.20528 625.829 -48.983 581.762C-93.2162 536.196 -127.203 478.428 -133.255 415.212C-139.185 353.262 -108.578 295.844 -81.7289 239.7C-55.3194 184.475 -25.3434 131.867 21.2383 92.1502C72.7795 48.2046 130.496 0.84815 198.228 1.00037Z" stroke="#818080" stroke-width="2"/>
</svg>
