<svg width="542" height="329" viewBox="0 0 542 329" fill="none" xmlns="http://www.w3.org/2000/svg">
<g clip-path="url(#clip0_8_22)">
<path d="M458.819 243.092L463.615 206.628C481.332 199.03 500.632 195.883 519.839 197.458C491.54 216.811 491.226 258.837 470.789 286.396C464.349 294.942 456.074 301.927 446.575 306.831C437.076 311.736 426.598 314.435 415.917 314.729L392.63 326.374C391.065 309.156 393.242 291.803 399.013 275.509C404.783 259.216 414.008 244.371 426.053 231.995C432.879 225.12 440.542 219.134 448.861 214.177C452.944 228.635 458.819 243.092 458.819 243.092Z" fill="#F2F2F2"/>
<path d="M407.461 21.2827C408.697 18.4186 410.574 15.8777 412.946 13.8562C415.318 11.8347 418.122 10.3867 421.141 9.62392C427.845 7.87627 437.66 10.5385 442.699 14.3609C451.917 21.353 454.167 45.3732 447.834 52.9638C446.574 52.9131 442.227 52.8755 440.952 52.8392L439.149 48.2641V52.7941C429.198 52.5601 418.837 52.7066 408.472 52.8582C407.543 47.4839 405.329 26.4524 407.461 21.2827Z" fill="#504437"/>
<path d="M409.15 310.928L400.074 310.927L395.756 275.836L409.152 275.836L409.15 310.928Z" fill="#D9AE9C"/>
<path d="M488.605 305.27L479.822 307.565L466.813 274.7L479.776 271.314L488.605 305.27Z" fill="#D9AE9C"/>
<path d="M421.319 47.1706C429.259 47.1706 435.695 40.7194 435.695 32.7613C435.695 24.8033 429.259 18.3521 421.319 18.3521C413.38 18.3521 406.943 24.8033 406.943 32.7613C406.943 40.7194 413.38 47.1706 421.319 47.1706Z" fill="#D9AE9C"/>
<path d="M411.441 13.9978C414.203 12.3099 417.367 11.3969 420.602 11.3541C423.837 11.3114 427.024 12.1405 429.829 13.7548C432.635 15.3691 434.956 17.7093 436.551 20.5307C438.145 23.352 438.954 26.551 438.893 29.793C431.057 31.8005 422.706 32.6402 413.857 30.2765L411.834 25.3141L410.641 30.2802C407.934 32.189 405.321 32.1856 402.802 30.2698C402.695 27.037 403.437 23.8326 404.953 20.9771C406.469 18.1216 408.706 15.715 411.441 13.9978Z" fill="#504437"/>
<path d="M413.21 328.202H406.77L405.62 322.107L402.676 328.202H385.594C384.775 328.202 383.978 327.939 383.318 327.453C382.659 326.967 382.172 326.282 381.928 325.498C381.684 324.715 381.697 323.874 381.964 323.098C382.231 322.322 382.738 321.652 383.412 321.186L397.053 311.743V305.581L411.401 306.439L413.21 328.202Z" fill="#2F2E41"/>
<path d="M497.677 320.752L491.445 322.38L488.798 316.773L487.483 323.415L470.954 327.734C470.161 327.941 469.324 327.889 468.563 327.585C467.803 327.281 467.159 326.741 466.726 326.045C466.293 325.348 466.093 324.531 466.156 323.713C466.22 322.894 466.542 322.118 467.077 321.496L477.9 308.91L476.35 302.947L490.45 300.15L497.677 320.752Z" fill="#2F2E41"/>
<path d="M487.491 283.202C481.936 262.504 475.76 242.262 460.886 228.393L456.792 168.164C462.55 157.445 447.599 129.153 447.599 129.153L442.376 121.531L406.172 127.829C397.698 150.993 393.567 156.704 394.054 200.201C394.54 243.697 395.723 288.876 395.723 288.876H395.199C394.331 288.876 393.497 289.222 392.883 289.838C392.268 290.454 391.923 291.289 391.923 292.16C391.923 293.031 392.268 293.867 392.883 294.482C393.497 295.098 394.331 295.444 395.199 295.444H411.581C412.45 295.444 413.284 295.098 413.898 294.482C414.513 293.867 414.858 293.031 414.858 292.16C414.858 291.289 414.513 290.454 413.898 289.838C413.284 289.222 412.45 288.876 411.581 288.876H411.159C420.775 261.784 422.492 220.115 422.919 176.065L436.594 231.735L469.639 282.991C468.796 283.057 468.011 283.448 467.45 284.082C466.888 284.715 466.593 285.542 466.627 286.389C466.661 287.236 467.021 288.036 467.632 288.623C468.242 289.209 469.056 289.535 469.901 289.533H486.283C487.045 289.534 487.783 289.268 488.371 288.782C488.958 288.295 489.358 287.619 489.501 286.869C489.644 286.119 489.522 285.342 489.155 284.673C488.788 284.003 488.2 283.483 487.491 283.202Z" fill="#2F2E41"/>
<path d="M451.344 134.767C451.208 134.231 450.906 133.753 450.482 133.399C450.057 133.046 449.532 132.836 448.982 132.8C444.524 128.265 441.184 88.0152 444.69 85.2335L444.685 85.1837L443.64 62.8143C443.602 62.0019 443.267 61.2319 442.699 60.6515C442.13 60.0711 441.368 59.721 440.559 59.6679L435.041 59.3064C434.965 59.3039 434.893 59.2719 434.841 59.2173C434.788 59.1628 434.759 59.0898 434.759 59.0139C434.759 58.4031 434.639 57.7983 434.405 57.234C434.172 56.6697 433.83 56.157 433.399 55.7251C432.969 55.2932 432.457 54.9506 431.894 54.7169C431.331 54.4831 430.728 54.3628 430.118 54.3628H413.782C412.723 54.3632 411.702 54.7507 410.908 55.4526C410.115 56.1545 409.605 57.1224 409.473 58.1748C409.465 58.2473 409.431 58.3143 409.377 58.3625C409.322 58.4108 409.252 58.4366 409.179 58.435L409.177 58.4349C407.321 58.3966 405.512 59.0265 404.08 60.2104C402.647 61.3944 401.685 63.0538 401.369 64.8876C399.136 77.9128 400.191 105.096 402.404 121.531C403.174 127.252 397.293 138.236 397.002 143.023C396.973 143.485 397.035 143.949 397.185 144.388C397.335 144.826 397.571 145.23 397.877 145.578C397.225 145.766 396.672 146.2 396.334 146.789C395.996 147.378 395.899 148.076 396.064 148.735C396.234 149.411 396.665 149.991 397.262 150.349C397.858 150.706 398.572 150.811 399.246 150.641L449.443 137.957C450.117 137.787 450.696 137.355 451.053 136.757C451.409 136.159 451.514 135.443 451.344 134.767Z" fill="#E6E6E6"/>
<path d="M343.375 79.5963C344.246 79.2553 345.181 79.1099 346.114 79.1703C347.047 79.2307 347.956 79.4954 348.776 79.9458C349.596 80.3962 350.307 81.0214 350.86 81.7772C351.413 82.533 351.794 83.4011 351.976 84.3204L402.416 95.1935L394.618 104.084L346.507 92.0062C344.946 92.2102 343.365 91.833 342.063 90.9464C340.76 90.0597 339.828 88.7251 339.442 87.1955C339.056 85.6658 339.243 84.0473 339.968 82.6467C340.693 81.2462 341.905 80.1608 343.375 79.5963Z" fill="#D9AE9C"/>
<path d="M409.769 107.454C401.981 111.54 354.937 95.5553 352.882 94.8535L352.36 94.6751L362.034 85.7611L399.254 91.2242L400.382 69.3803C400.51 66.97 401.377 64.6581 402.867 62.7613C404.356 60.8644 406.394 59.4755 408.701 58.7846C410.744 58.1755 412.915 58.1397 414.978 58.6811C417.04 59.2225 418.915 60.3204 420.398 61.8554C421.881 63.3903 422.916 65.3036 423.39 67.387C423.864 69.4705 423.759 71.6443 423.086 73.672L413.876 101.43C413.167 103.561 411.955 105.489 410.343 107.049C410.172 107.211 409.978 107.347 409.769 107.454Z" fill="#E6E6E6"/>
<path d="M366.757 327.769H75.5943L75.5222 327.539L75.45 327.309C74.4982 324.275 73.6277 321.2 72.8442 318.105C72.0607 315.009 71.3642 311.894 70.7601 308.781C69.9391 304.554 69.2812 300.283 68.7899 295.998C68.2986 291.712 67.9739 287.413 67.819 283.129C67.55 275.536 68.8123 267.967 71.5304 260.874C74.2484 253.782 78.3663 247.312 83.6376 241.852C88.9089 236.392 95.2251 232.054 102.208 229.098C109.191 226.142 116.697 224.629 124.278 224.65H323.593C331.519 224.636 339.359 226.297 346.602 229.524C353.845 232.751 360.328 237.472 365.628 243.379C370.928 249.286 374.927 256.247 377.363 263.807C379.799 271.367 380.618 279.357 379.766 287.255C379.198 292.362 378.245 297.419 376.914 302.382C375.538 307.515 373.801 312.544 371.717 317.431C371.008 319.097 370.253 320.765 369.454 322.438C368.656 324.107 367.819 325.767 366.942 327.42L366.849 327.594L366.757 327.769Z" fill="#E6E6E6"/>
<path d="M325.736 245.339H116.702C112.097 245.339 107.68 243.505 104.424 240.241C101.167 236.977 99.3376 232.55 99.3376 227.934C99.3376 223.318 101.167 218.89 104.424 215.626C107.68 212.362 112.097 210.528 116.702 210.528H325.736C330.342 210.528 334.758 212.362 338.015 215.626C341.271 218.89 343.101 223.318 343.101 227.934C343.101 232.55 341.271 236.977 338.015 240.241C334.758 243.505 330.342 245.339 325.736 245.339Z" fill="#FB0000"/>
<path d="M328.373 233.302H115.6L115.456 232.842C112.164 222.375 110.288 211.513 109.878 200.546C109.69 194.982 110.621 189.437 112.616 184.241C114.612 179.046 117.631 174.306 121.493 170.305C125.356 166.304 129.982 163.124 135.097 160.954C140.212 158.784 145.711 157.669 151.265 157.675H296.76C302.569 157.669 308.314 158.889 313.622 161.256C318.929 163.623 323.68 167.084 327.565 171.414C331.449 175.743 334.38 180.845 336.167 186.385C337.955 191.925 338.558 197.781 337.937 203.57C336.865 213.375 333.71 223.261 328.558 232.954L328.373 233.302Z" fill="#E6E6E6"/>
<path d="M299.525 179.658H145.535C140.929 179.658 136.512 177.824 133.256 174.56C129.999 171.296 128.17 166.869 128.17 162.253C128.17 157.637 129.999 153.21 133.256 149.945C136.512 146.681 140.929 144.847 145.535 144.847H299.525C304.13 144.847 308.547 146.681 311.804 149.945C315.06 153.21 316.89 157.637 316.89 162.253C316.89 166.869 315.06 171.296 311.804 174.56C308.547 177.824 304.13 179.658 299.525 179.658Z" fill="#FB0000"/>
<path d="M309.78 118.437C306.552 114.831 302.603 111.947 298.19 109.971C293.777 107.995 288.999 106.972 284.165 106.969H163.863C159.256 106.965 154.695 107.89 150.453 109.69C146.21 111.49 142.372 114.128 139.169 117.446C135.965 120.765 133.461 124.696 131.805 129.005C130.15 133.314 129.377 137.914 129.533 142.529C129.871 151.608 131.423 160.601 134.146 169.268L134.29 169.727H310.37L310.553 169.379C314.666 161.836 317.302 153.574 318.318 145.038C318.838 140.252 318.346 135.409 316.875 130.826C315.404 126.243 312.987 122.022 309.78 118.437Z" fill="#E6E6E6"/>
<path d="M281.97 106.969H168.332C167.488 109.581 167.272 112.356 167.702 115.068C168.132 117.779 169.196 120.35 170.807 122.571C172.418 124.791 174.53 126.599 176.971 127.845C179.412 129.091 182.112 129.741 184.851 129.741H265.451C268.19 129.741 270.89 129.091 273.331 127.845C275.772 126.599 277.884 124.791 279.495 122.571C281.106 120.35 282.17 117.779 282.6 115.068C283.03 112.356 282.814 109.581 281.97 106.969Z" fill="#FB0000"/>
<path d="M371.114 317.174C369.699 320.498 368.115 323.81 366.363 327.112H76.0753C74.1733 321.052 72.6134 314.891 71.4031 308.655C71.9443 308.234 72.57 307.935 73.2373 307.778C73.9046 307.622 74.5978 307.612 75.2693 307.749C76.6526 308.188 77.8482 309.081 78.6636 310.284C81.1078 313.463 82.13 317.49 83.0933 321.391C84.1221 319.092 85.1902 316.734 86.9856 314.961C87.7003 314.218 88.5607 313.632 89.5126 313.24C90.4645 312.848 91.4872 312.658 92.5162 312.682C93.2434 311.378 94.2812 310.274 95.537 309.47C97.2997 308.419 99.7046 308.274 101.31 309.542C102.387 310.516 103.105 311.826 103.348 313.26C104.246 317.174 103.499 321.26 102.752 325.214C104.645 323.545 106.598 321.851 108.964 320.99C110.034 320.598 111.174 320.43 112.312 320.498C112.535 318.313 113.11 316.179 114.016 314.179C114.782 312.262 116.106 310.621 117.816 309.47C119.579 308.419 121.984 308.274 123.589 309.542C124.667 310.516 125.385 311.826 125.627 313.26C126.525 317.174 125.778 321.26 125.031 325.214C126.925 323.545 128.878 321.851 131.243 320.99C132.314 320.598 133.454 320.43 134.592 320.498C134.814 318.313 135.39 316.179 136.295 314.179C137.061 312.262 138.386 310.621 140.096 309.47C141.859 308.419 144.263 308.274 145.869 309.542C146.946 310.516 147.664 311.826 147.907 313.26C148.805 317.174 148.058 321.26 147.311 325.214C149.204 323.545 151.157 321.851 153.523 320.99C154.593 320.598 155.733 320.43 156.871 320.498C157.094 318.313 157.669 316.179 158.575 314.179C159.341 312.262 160.665 310.621 162.375 309.47C164.138 308.419 166.543 308.274 168.148 309.542C169.226 310.516 169.944 311.826 170.186 313.26C171.084 317.174 170.337 321.26 169.59 325.214C171.484 323.545 173.436 321.851 175.802 320.99C176.873 320.598 178.012 320.43 179.15 320.498C179.373 318.313 179.949 316.179 180.854 314.179C181.62 312.262 182.945 310.621 184.655 309.47C186.417 308.419 188.822 308.274 190.428 309.542C191.505 310.516 192.223 311.826 192.466 313.26C193.363 317.174 192.616 321.26 191.869 325.214C193.763 323.545 195.716 321.851 198.081 320.99C199.152 320.598 200.292 320.43 201.43 320.498C201.653 318.313 202.228 316.179 203.134 314.179C203.9 312.262 205.224 310.621 206.934 309.47C208.697 308.419 211.102 308.274 212.707 309.542C213.785 310.516 214.503 311.826 214.745 313.26C215.643 317.174 214.896 321.26 214.149 325.214C216.043 323.545 217.995 321.851 220.361 320.99C221.432 320.598 222.571 320.43 223.709 320.498C223.932 318.313 224.507 316.179 225.413 314.179C226.179 312.262 227.504 310.621 229.214 309.47C230.976 308.419 233.381 308.274 234.987 309.542C236.064 310.516 236.782 311.826 237.025 313.26C237.922 317.174 237.175 321.26 236.428 325.214C238.322 323.545 240.275 321.851 242.64 320.99C243.711 320.598 244.851 320.43 245.989 320.498C246.212 318.313 246.787 316.179 247.693 314.179C248.459 312.262 249.783 310.621 251.493 309.47C253.256 308.419 255.661 308.274 257.266 309.542C258.344 310.516 259.062 311.826 259.304 313.26C260.202 317.174 259.455 321.26 258.708 325.214C260.601 323.545 262.554 321.851 264.92 320.99C265.99 320.598 267.13 320.43 268.268 320.498C268.491 318.313 269.066 316.179 269.972 314.179C270.738 312.262 272.062 310.621 273.773 309.47C275.535 308.419 277.94 308.274 279.546 309.542C280.623 310.516 281.341 311.826 281.583 313.26C282.481 317.174 281.734 321.26 280.987 325.214C282.881 323.545 284.834 321.851 287.199 320.99C288.27 320.598 289.41 320.43 290.548 320.498C290.77 318.313 291.346 316.179 292.251 314.179C293.018 312.262 294.342 310.621 296.052 309.47C297.815 308.419 300.22 308.274 301.825 309.542C302.902 310.516 303.62 311.826 303.863 313.26C304.761 317.174 304.014 321.26 303.267 325.214C305.16 323.545 307.113 321.851 309.479 320.99C310.549 320.598 311.689 320.43 312.827 320.498C313.05 318.313 313.625 316.179 314.531 314.179C315.297 312.262 316.621 310.621 318.331 309.47C320.094 308.419 322.499 308.274 324.104 309.542C325.182 310.516 325.9 311.826 326.142 313.26C327.04 317.174 326.293 321.26 325.546 325.214C327.44 323.545 329.393 321.851 331.758 320.99C332.829 320.598 333.969 320.43 335.107 320.498C335.329 318.313 335.905 316.179 336.81 314.179C337.576 312.262 338.901 310.621 340.611 309.47C342.374 308.419 344.779 308.274 346.384 309.542C347.461 310.516 348.179 311.826 348.422 313.26C349.32 317.174 348.573 321.26 347.826 325.214C349.719 323.545 351.672 321.851 354.038 320.99C355.108 320.598 356.248 320.43 357.386 320.498C357.609 318.313 358.184 316.179 359.09 314.179C359.856 312.262 361.18 310.621 362.89 309.47C364.653 308.419 367.058 308.274 368.663 309.542C369.741 310.516 370.459 311.826 370.701 313.26C370.986 314.545 371.124 315.858 371.114 317.174Z" fill="#CCCCCC"/>
<path d="M133.978 128.333C138.576 126.3 144.121 127.071 148.225 129.877C152.547 132.833 154.559 138.037 154.034 143.172C153.742 146.118 152.551 148.903 150.622 151.146L151.317 150.857C149.177 150.831 148.005 148.321 148.33 146.425C148.77 143.857 151.696 142.529 154.02 142.336C157.185 142.074 160.228 143.449 163.082 144.636C166.145 145.92 169.282 147.018 172.477 147.923C178.975 149.741 185.673 150.742 192.417 150.903C195.741 150.984 199.068 150.853 202.376 150.513C205.399 150.201 208.498 149.816 211.334 148.663C214.201 147.497 216.677 145.58 217.902 142.666C218.505 141.375 218.749 139.946 218.608 138.527C218.468 137.109 217.947 135.756 217.102 134.61C216.98 134.489 216.829 134.403 216.663 134.359C216.497 134.315 216.323 134.315 216.157 134.358C215.992 134.402 215.84 134.489 215.718 134.609C215.595 134.729 215.506 134.879 215.459 135.044C215.006 137.293 215.025 139.611 215.515 141.852C216.005 144.093 216.956 146.207 218.306 148.058C219.742 150.034 221.603 151.66 223.751 152.815C225.9 153.971 228.281 154.626 230.717 154.731C236.278 155.032 241.718 152.872 246.548 150.312C251.595 147.638 256.2 144.212 261.332 141.685C266.282 139.248 271.985 137.454 277.492 138.916C281.882 140.081 286.521 143.924 285.073 148.975C284.514 150.927 282.952 152.569 280.832 152.563C279.032 152.558 276.956 151.417 276.739 149.467C276.478 147.129 278.712 145.293 280.699 144.603C283.546 143.615 286.722 144.356 289.634 144.604C294.415 145.033 299.186 143.68 303.035 140.805C306.747 138.097 309.452 134.225 310.721 129.802C311.019 128.676 311.213 127.524 311.3 126.361C311.401 125.097 309.434 125.104 309.334 126.361C309.091 128.732 308.382 131.032 307.247 133.126C306.113 135.221 304.575 137.069 302.723 138.564C300.88 140.106 298.752 141.269 296.461 141.988C293.971 142.701 291.362 142.893 288.795 142.554C285.842 142.252 282.668 141.711 279.816 142.837C277.632 143.699 275.523 145.409 274.925 147.781C273.759 152.398 279.031 155.743 283.071 154.108C287.604 152.273 288.304 146.143 285.889 142.388C282.987 137.876 277.196 136.121 272.081 136.457C259.926 137.255 251.108 147.018 240.14 151.082C234.964 153 228.987 153.741 224.039 150.772C222.035 149.523 220.359 147.811 219.15 145.78C217.941 143.749 217.235 141.458 217.09 139.097C217.023 137.914 217.112 136.728 217.355 135.568L215.712 136.003C216.937 137.591 216.886 139.759 216.233 141.568C215.439 143.593 213.92 145.247 211.973 146.208C209.832 147.257 207.528 147.931 205.16 148.2C202.536 148.582 199.892 148.816 197.242 148.901C186.577 149.293 175.943 147.521 165.978 143.693C161.487 141.964 156.728 139.296 151.784 140.767C148.057 141.876 145.2 145.449 146.758 149.396C147.043 150.221 147.531 150.96 148.175 151.545C148.82 152.131 149.602 152.545 150.448 152.748C150.897 152.883 151.377 152.864 151.813 152.693C152.212 152.381 152.55 151.997 152.81 151.561C153.47 150.693 154.034 149.754 154.492 148.763C156.232 144.968 156.554 140.672 155.4 136.659C152.662 127.342 141.704 122.777 132.986 126.632C131.831 127.143 132.83 128.841 133.978 128.333Z" fill="#3F3D56"/>
<path d="M112.478 187.033C115.292 193.828 119.578 199.912 125.024 204.844C130.471 209.776 136.942 213.434 143.971 215.553C146.366 216.282 148.822 216.793 151.309 217.08C153.677 217.336 156.276 217.186 158.237 215.68C161.061 213.511 161.001 207.311 156.528 207.356C154.317 207.379 152.467 209.409 152.192 211.517C151.871 213.978 153.398 216.278 155.227 217.765C159.24 221.028 164.746 221.431 169.638 220.409C175.257 219.236 180.181 216.053 185.108 213.263C190.749 210.068 197.453 206.86 204.089 208.571C209.121 209.869 213.71 215.164 212.069 220.569L213.513 219.981C211.328 218.988 210.797 216.244 211.655 214.145C212.729 211.517 215.868 210.536 218.472 210.538C221.906 210.54 225.078 212.137 228.125 213.545C230.93 214.868 233.843 215.944 236.834 216.762C248.627 219.835 261.118 218.724 272.188 213.619C274.905 212.386 277.491 210.882 279.907 209.129C281.819 207.716 284.027 205.244 282.486 202.763C282.202 202.28 281.805 201.874 281.328 201.58C280.851 201.287 280.31 201.116 279.752 201.082C278.407 201.075 277.816 202.012 277.396 203.155C276.567 205.588 276.557 208.227 277.37 210.665C279.077 216.069 283.625 219.799 289.019 221.16C294.985 222.666 301.409 221.639 307.176 219.779C318.204 216.186 327.704 208.975 334.145 199.31C334.949 198.095 335.693 196.843 336.388 195.563C336.992 194.448 335.295 193.452 334.69 194.568C329.4 204.235 321.054 211.864 310.965 216.257C301.706 220.287 286.378 223.255 280.323 212.552C279.069 210.442 278.539 207.978 278.813 205.538C278.923 204.765 279.171 202.529 280.301 203.259C281.582 204.085 280.886 205.545 280.071 206.418C278.236 208.384 275.46 209.765 273.094 210.988C270.558 212.295 267.912 213.376 265.187 214.217C254.145 217.67 242.254 217.206 231.513 212.904C225.814 210.565 219.309 206.412 213.13 209.844C212.01 210.437 211.067 211.317 210.396 212.393C209.725 213.469 209.351 214.705 209.31 215.973C209.242 218.3 210.337 220.69 212.521 221.682C212.652 221.755 212.797 221.797 212.946 221.806C213.095 221.815 213.245 221.79 213.383 221.734C213.522 221.677 213.646 221.591 213.747 221.48C213.847 221.369 213.922 221.237 213.965 221.093C215.194 217.042 213.492 212.803 210.509 209.979C207 206.658 202.222 205.706 197.538 206.355C186.899 207.827 179.185 216.572 168.771 218.579C164.278 219.444 158.735 218.958 155.503 215.319C154.059 213.694 153.244 210.402 155.944 209.444C157.924 208.741 158.544 211.096 158.102 212.544C156.738 217.019 149.198 214.902 146.069 214.091C141.766 212.968 137.646 211.232 133.834 208.937C125.112 203.751 118.289 195.887 114.374 186.509C113.902 185.351 112 185.858 112.478 187.033Z" fill="#CCCCCC"/>
<path d="M70.4391 270.604C85.5091 267.758 104.038 264.89 115.342 278.011C117.584 280.559 119.134 283.643 119.841 286.966C120.14 288.46 120.515 290.118 119.002 291.041C118.419 291.378 117.761 291.562 117.088 291.576C116.416 291.59 115.751 291.434 115.154 291.121C111.853 289.285 113.692 284.401 116.177 282.801C119.561 280.622 123.915 281.552 127.388 282.971C131.156 284.51 134.721 286.477 138.534 287.927C142.138 289.296 145.833 290.411 149.592 291.263C157.38 293.031 165.375 293.701 173.347 293.254C181.079 292.901 188.714 291.395 196.003 288.787C198.792 287.744 201.694 286.237 203.393 283.689C204.174 282.556 204.574 281.203 204.536 279.827C204.498 278.451 204.023 277.122 203.18 276.035C202.293 274.841 201.017 273.996 199.573 273.648C198.129 273.3 196.609 273.471 195.278 274.132C194.047 274.798 193.046 275.823 192.409 277.072C191.886 278.1 191.203 280.134 191.871 281.218C192.21 281.768 193.04 281.987 193.584 282.254C194.494 282.701 195.411 283.133 196.336 283.549C197.953 284.277 199.59 284.961 201.246 285.599C204.871 286.995 208.578 288.164 212.347 289.101C227.176 292.776 242.652 292.968 257.567 289.663C261.275 288.838 264.931 287.79 268.513 286.523C271.9 285.324 275.475 284.041 278.589 282.225C281.044 280.793 283.922 278.333 283.691 275.183C283.598 274.032 283.061 272.962 282.194 272.202C281.326 271.442 280.197 271.051 279.047 271.112C277.865 271.115 276.708 271.449 275.704 272.074C274.701 272.699 273.891 273.592 273.365 274.653C272.031 277.686 273.366 281.14 275.312 283.561C279.515 288.789 286.685 290.667 293.117 290.603C300.571 290.529 307.637 288.169 314.55 285.603C322.293 282.729 330.376 279.538 338.787 280.048C346.367 280.507 353.509 285.002 361.206 284.069C367.887 283.259 371.808 277.9 373.542 271.799C374.325 268.824 374.86 265.789 375.142 262.726C375.283 261.468 373.316 261.478 373.177 262.726C372.508 268.715 371.493 276.311 366.209 280.114C359.802 284.726 351.459 280.662 344.744 279.024C336.996 277.133 329.392 278.422 321.924 280.874C314.567 283.29 307.484 286.592 299.821 287.971C293.165 289.169 285.798 289.036 279.992 285.148C277.14 283.238 273.738 279.482 275.05 275.721C275.8 273.572 279.705 271.813 281.292 274.068C283.627 277.389 277.755 280.535 275.5 281.576C272.046 283.164 268.495 284.53 264.869 285.667C241.134 293.088 215.455 291.01 193.216 279.87L193.703 280.72C193.325 277.318 196.773 274.125 200.065 275.915C203.2 277.62 203.18 281.363 200.84 283.71C198.536 286.021 195.232 287.05 192.191 287.966C188.835 288.976 185.418 289.768 181.961 290.339C167.441 292.709 152.555 291.189 138.811 285.933C132.655 283.569 126.28 278.767 119.38 279.661C116.627 280.017 113.965 281.356 112.535 283.822C111.274 285.995 111.003 288.851 112.343 291.052C114.482 294.564 121.974 294.402 122.103 289.476C122.251 283.864 118.718 278.261 114.772 274.584C102.481 263.133 84.9457 265.865 69.9164 268.704C68.6747 268.939 69.2006 270.838 70.4391 270.604Z" fill="#CCCCCC"/>
<path d="M261.013 79.3309C265.793 78.5132 267.842 72.7322 266.719 68.4752C265.989 65.7075 264.275 63.3321 262.371 61.2498C260.162 58.8338 257.711 56.6275 255.356 54.3558C252.477 51.578 249.598 48.8003 246.719 46.0225C246.597 45.9029 246.446 45.8171 246.28 45.7736C246.115 45.73 245.941 45.7301 245.775 45.7739C245.61 45.8176 245.459 45.9036 245.336 46.0233C245.214 46.1431 245.124 46.2926 245.077 46.4572C243.832 54.5893 245.785 62.8883 250.524 69.6054C251.735 71.2832 253.099 72.845 254.597 74.2706C256.06 75.6795 257.628 77.0821 258.536 78.9357L261.18 80.879C261.093 80.358 260.961 79.8454 260.788 79.3467C260.863 79.349 260.938 79.3438 261.013 79.3309Z" fill="#FD6584"/>
<path d="M260.864 78.8384H258.898C259.93 80.945 259.508 84.1502 259.365 86.4336C259.204 88.9862 258.985 91.5361 258.792 94.0864C258.359 99.8214 257.925 105.556 257.492 111.291C257.396 112.556 259.363 112.55 259.458 111.291L260.611 96.0342C260.807 93.4372 261.003 90.8403 261.199 88.2433C261.358 85.1045 261.246 81.9578 260.864 78.8384Z" fill="#3F3D56"/>
<path d="M261.003 79.0616C261.417 77.8343 261.565 76.5322 261.437 75.2428C261.308 73.9533 260.906 72.7064 260.257 71.5855C260.121 71.3694 259.906 71.2147 259.659 71.1541C259.411 71.0935 259.149 71.1317 258.929 71.2607C258.709 71.3897 258.547 71.5994 258.478 71.8456C258.41 72.0917 258.439 72.355 258.56 72.58C259.08 73.4728 259.398 74.4688 259.493 75.4981C259.587 76.5274 259.455 77.565 259.107 78.5378C259.038 78.7897 259.072 79.0586 259.2 79.2856C259.329 79.5126 259.543 79.6791 259.794 79.7485C260.045 79.8179 260.313 79.7846 260.54 79.6558C260.767 79.527 260.933 79.3133 261.003 79.0616Z" fill="#3F3D56"/>
<path d="M184.345 77.3604C189.126 76.5427 191.175 70.7617 190.052 66.5048C189.321 63.737 187.608 61.3616 185.704 59.2794C183.494 56.8634 181.043 54.657 178.689 52.3853C175.81 49.6076 172.931 46.8298 170.052 44.052C169.929 43.9324 169.778 43.8467 169.613 43.8031C169.447 43.7595 169.273 43.7596 169.108 43.8034C168.942 43.8472 168.791 43.9331 168.669 44.0529C168.546 44.1726 168.457 44.3221 168.409 44.4868C167.164 52.6188 169.117 60.9178 173.857 67.6349C175.068 69.3128 176.431 70.8745 177.93 72.3001C179.392 73.709 180.96 75.1116 181.868 76.9653L184.513 78.9085C184.425 78.3876 184.294 77.875 184.12 77.3762C184.195 77.3786 184.271 77.3733 184.345 77.3604Z" fill="#FD6584"/>
<path d="M184.196 76.8679H182.23C183.263 78.9745 182.841 82.1798 182.697 84.4631C182.537 87.0157 182.317 89.5657 182.124 92.116C181.691 97.8509 181.258 103.586 180.824 109.321C180.729 110.586 182.695 110.579 182.79 109.321L183.943 94.0637C184.139 91.4667 184.335 88.8698 184.532 86.2729C184.691 83.134 184.578 79.9873 184.196 76.8679Z" fill="#3F3D56"/>
<path d="M184.335 77.0912C184.75 75.8638 184.898 74.5617 184.769 73.2723C184.641 71.9829 184.239 70.7359 183.59 69.6151C183.454 69.3989 183.239 69.2442 182.991 69.1836C182.743 69.123 182.482 69.1613 182.262 69.2903C182.041 69.4193 181.88 69.629 181.811 69.8751C181.742 70.1212 181.771 70.3846 181.892 70.6096C182.412 71.5023 182.731 72.4984 182.825 73.5277C182.92 74.557 182.788 75.5945 182.44 76.5674C182.371 76.8192 182.404 77.0882 182.533 77.3152C182.662 77.5422 182.875 77.7087 183.126 77.7781C183.378 77.8475 183.646 77.8141 183.873 77.6853C184.099 77.5565 184.266 77.3428 184.335 77.0912Z" fill="#3F3D56"/>
<path d="M220.385 74.0765C225.166 73.2588 227.215 67.4778 226.092 63.2209C225.362 60.4531 223.648 58.0777 221.744 55.9954C219.534 53.5794 217.083 51.3731 214.729 49.1014C211.85 46.3236 208.971 43.5459 206.092 40.7681C205.97 40.6485 205.818 40.5627 205.653 40.5192C205.487 40.4756 205.313 40.4757 205.148 40.5195C204.983 40.5632 204.831 40.6492 204.709 40.7689C204.587 40.8887 204.497 41.0382 204.449 41.2028C203.204 49.3349 205.157 57.6339 209.897 64.351C211.108 66.0289 212.471 67.5906 213.97 69.0162C215.432 70.4251 217 71.8277 217.909 73.6813L220.553 75.6246C220.465 75.1036 220.334 74.591 220.16 74.0923C220.236 74.0946 220.311 74.0894 220.385 74.0765Z" fill="#FD6584"/>
<path d="M220.236 73.5837H218.271C219.303 75.6903 218.881 78.8956 218.738 81.179C218.577 83.7316 218.357 86.2815 218.165 88.8318C217.731 94.5667 217.298 100.302 216.865 106.037C216.769 107.301 218.735 107.295 218.831 106.037L219.983 90.7795C220.18 88.1826 220.376 85.5856 220.572 82.9887C220.731 79.8499 220.619 76.7032 220.236 73.5837Z" fill="#3F3D56"/>
<path d="M220.375 73.807C220.79 72.5796 220.938 71.2776 220.81 69.9881C220.681 68.6987 220.279 67.4517 219.63 66.3309C219.494 66.1147 219.279 65.96 219.031 65.8994C218.784 65.8388 218.522 65.8771 218.302 66.0061C218.082 66.1351 217.92 66.3448 217.851 66.5909C217.782 66.8371 217.812 67.1004 217.933 67.3254C218.452 68.2181 218.771 69.2142 218.865 70.2435C218.96 71.2728 218.828 72.3103 218.48 73.2832C218.411 73.535 218.444 73.804 218.573 74.031C218.702 74.258 218.915 74.4245 219.167 74.4939C219.418 74.5633 219.686 74.5299 219.913 74.4011C220.139 74.2724 220.306 74.0587 220.375 73.807Z" fill="#3F3D56"/>
<path d="M248.035 191.307C247.55 189.452 245.698 187.885 243.815 188.228C242.302 188.503 241.187 189.893 240.769 191.376C240.444 192.887 240.402 194.444 240.644 195.97C238.956 194.19 237.2 192.362 234.94 191.413C234.145 191.021 233.241 190.91 232.375 191.098C231.786 191.314 231.273 191.698 230.901 192.204C230.528 192.71 230.312 193.314 230.28 193.942C230.24 195.203 230.579 196.447 231.254 197.513C232.197 199.144 233.491 200.545 235.042 201.611C236.594 202.678 238.363 203.384 240.221 203.679L239.612 202.882C242.705 201.801 245.311 199.647 246.958 196.809C247.914 195.148 248.52 193.162 248.035 191.307Z" fill="#FB0000"/>
<path d="M158.917 268.81C158.432 266.955 156.58 265.388 154.698 265.731C153.185 266.006 152.07 267.396 151.652 268.88C151.327 270.39 151.284 271.947 151.526 273.473C149.838 271.693 148.082 269.866 145.822 268.916C145.027 268.525 144.123 268.413 143.258 268.601C142.668 268.817 142.155 269.201 141.783 269.707C141.41 270.213 141.195 270.817 141.162 271.445C141.122 272.706 141.462 273.951 142.136 275.016C143.079 276.648 144.373 278.048 145.925 279.114C147.476 280.181 149.245 280.888 151.103 281.182L150.494 280.386C153.587 279.304 156.193 277.15 157.84 274.312C158.796 272.651 159.402 270.665 158.917 268.81Z" fill="#FB0000"/>
<path d="M174.644 153.212C174.159 151.357 172.307 149.79 170.424 150.133C168.911 150.408 167.796 151.798 167.378 153.281C167.053 154.792 167.011 156.349 167.253 157.875C165.565 156.095 163.809 154.267 161.549 153.318C160.754 152.926 159.85 152.815 158.984 153.003C158.395 153.219 157.882 153.603 157.51 154.109C157.137 154.615 156.921 155.219 156.889 155.847C156.849 157.108 157.188 158.353 157.863 159.418C158.806 161.05 160.1 162.45 161.651 163.516C163.203 164.583 164.972 165.289 166.83 165.584L166.221 164.787C169.314 163.706 171.919 161.552 173.567 158.714C174.523 157.053 175.129 155.067 174.644 153.212Z" fill="#FB0000"/>
<path d="M313.146 44.6984C311.524 51.8377 310.754 59.9316 315.078 66.3205C316.916 69.0613 319.613 71.1095 322.743 72.141C325.912 73.0825 329.252 73.2882 332.511 72.7423C339.887 71.7181 346.442 67.8674 353.695 66.3724C356.896 65.7127 360.293 65.4946 363.375 66.7643C365.684 67.7157 368.115 69.6284 368.127 72.3569C368.138 75.1587 365.71 77.0183 363.296 77.8797C360.074 79.0292 356.726 78.5843 353.384 78.4394C349.785 78.2834 346.115 78.6096 343.125 80.8189C340.553 82.8307 338.581 85.5107 337.423 88.5674C335.92 92.2233 335.31 96.1538 334.349 99.9681C333.49 103.397 332.275 106.727 330.724 109.903C327.68 116.127 323.414 121.671 318.18 126.201C315.598 128.428 312.462 130.696 308.937 130.9C306.217 131.058 302.912 129.913 301.864 127.152C301.475 125.96 301.513 124.669 301.972 123.503C302.431 122.336 303.282 121.367 304.378 120.762C306.708 119.583 309.246 121.265 309.999 123.572C310.196 124.104 310.265 124.676 310.2 125.239C310.135 125.803 309.938 126.344 309.625 126.816C308.918 127.872 310.62 128.86 311.322 127.811C312.952 125.375 312.1 122.1 310.104 120.149C309.131 119.154 307.829 118.548 306.443 118.444C305.056 118.341 303.679 118.746 302.569 119.586C301.416 120.466 300.544 121.664 300.061 123.034C299.577 124.404 299.503 125.885 299.848 127.296C300.686 130.329 303.659 132.257 306.627 132.735C310.293 133.325 313.821 131.881 316.78 129.795C319.749 127.647 322.448 125.148 324.819 122.351C329.641 116.794 333.265 110.298 335.465 103.272C337.629 96.3219 337.786 87.1409 344.216 82.4474C347.524 80.0322 351.578 80.3001 355.457 80.5218C358.881 80.7175 362.222 80.6819 365.363 79.1281C367.957 77.8451 370.049 75.477 370.093 72.4599C370.136 69.4142 367.979 66.9651 365.437 65.5775C358.722 61.9117 350.658 64.8682 344.061 67.3172C337.426 69.7801 329.852 72.6707 322.801 70.079C319.547 68.8115 316.927 66.3024 315.516 63.1018C313.809 59.4727 313.566 55.355 313.96 51.4165C314.193 49.3314 314.554 47.2627 315.041 45.2222C315.322 43.9876 313.427 43.4605 313.146 44.6984Z" fill="#3F3D56"/>
<path d="M325.195 24.6709C323.251 31.1765 320.32 37.3438 316.506 42.9565C315.562 44.3358 314.571 45.68 313.531 46.9893C312.723 45.5172 311.744 44.1459 310.615 42.9039C306.651 38.5361 301.336 35.679 296.179 32.8153C291.022 29.9517 285.787 26.8778 282.143 22.2342C280.508 20.1438 279.338 17.7276 278.71 15.1472C277.884 11.6464 278.199 7.99455 280.236 5.07175C283.198 0.822202 289.102 -0.675314 294.122 0.552917C299.148 1.78115 303.355 5.28193 306.618 9.3016C305.55 4.3624 310.746 -0.406025 315.772 0.0274688C320.798 0.46753 324.828 4.86814 326.165 9.74166C327.508 14.6086 326.637 19.8237 325.195 24.6709Z" fill="#FB0000"/>
<g opacity="0.2">
<path d="M316.506 42.9565C315.562 44.3358 314.571 45.6801 313.531 46.9893C312.723 45.5172 311.744 44.1459 310.615 42.9039C306.651 38.5362 301.336 35.679 296.179 32.8154C291.022 29.9517 285.787 26.8778 282.143 22.2342C280.508 20.1438 279.338 17.7276 278.71 15.1472C290.303 16.7582 300.955 22.4226 308.787 31.1405C311.922 34.6798 314.523 38.6608 316.506 42.9565Z" fill="black"/>
</g>
<path d="M436.725 136.118C437.659 136.092 438.577 135.862 439.413 135.443C440.25 135.023 440.984 134.425 441.565 133.691C442.145 132.956 442.558 132.103 442.774 131.191C442.99 130.279 443.004 129.331 442.815 128.413L461.677 116.358L451.043 111.206L434.796 123.464C433.278 123.884 431.968 124.848 431.112 126.172C430.256 127.497 429.915 129.09 430.153 130.65C430.391 132.209 431.191 133.627 432.402 134.635C433.613 135.643 435.151 136.17 436.725 136.118Z" fill="#D9AE9C"/>
<path d="M440.57 77.4524C440.57 77.4524 429.498 68.4785 433.892 62.1115C438.285 55.7445 449.505 62.6776 449.505 62.6776L482.163 99.8874C482.163 99.8874 447.472 131.449 448.548 126.762C449.624 122.074 441.577 118.41 441.577 118.41L457.058 100.958L453.662 99.3081L455.047 98.5093L453.59 95.0875L440.57 77.4524Z" fill="#E6E6E6"/>
<path d="M542 328.015C542 328.117 541.98 328.219 541.941 328.314C541.902 328.409 541.845 328.496 541.772 328.568C541.7 328.641 541.614 328.698 541.519 328.738C541.424 328.777 541.323 328.797 541.22 328.796L393.763 328.816L383.462 328.823L376.667 328.829H369.151L365.049 328.836L353.66 328.842L174.468 328.934L173.105 328.941L92.9512 328.967H91.6275L23.4 328.993H22.0763L0.779813 329C0.573002 329 0.374669 328.918 0.228432 328.771C0.0821946 328.624 3.05176e-05 328.426 3.05176e-05 328.218C3.05176e-05 328.011 0.0821946 327.812 0.228432 327.666C0.374669 327.519 0.573002 327.437 0.779813 327.437L22.2991 327.43H23.6228L91.8307 327.404H93.1543L172.685 327.378H174.042L241.811 327.351H242.702L352.415 327.286L363.784 327.279L368.987 327.273L377.211 327.266H384.235L395.303 327.259L541.22 327.233C541.323 327.233 541.424 327.253 541.519 327.292C541.614 327.331 541.7 327.389 541.772 327.461C541.845 327.534 541.902 327.62 541.941 327.715C541.98 327.81 542 327.912 542 328.015Z" fill="#CACACA"/>
<path d="M450.687 15.4281C449.266 13.2446 447.7 10.9371 445.288 9.96147C442.876 8.9858 439.456 10.1524 439.128 12.7384C438.883 14.6714 440.355 16.3318 441.463 17.933C442.57 19.5342 443.291 21.9511 441.844 23.2524L441.03 23.6732C441.808 24.6808 442.811 25.4914 443.958 26.0402C445.105 26.5889 446.365 26.8604 447.636 26.8329C450.166 26.6724 452.604 24.7905 453.03 22.286C453.446 19.8441 452.037 17.5032 450.687 15.4281Z" fill="#504437"/>
</g>
<defs>
<clipPath id="clip0_8_22">
<rect width="542" height="329" fill="white"/>
</clipPath>
</defs>
</svg>
